<svg width="4" height="8" viewBox="0 0 4 8" fill="none" xmlns="http://www.w3.org/2000/svg">
    <path
        d="M0.138568 7.8419C0.0461894 7.7365 0 7.6117 0 7.46751C0 7.3236 0.0461894 7.19895 0.138568 7.09354L2.84527 4.00527L0.12933 0.906456C0.04311 0.808081 0 0.685112 0 0.537549C0 0.389987 0.0461894 0.263505 0.138568 0.158103C0.230947 0.0527009 0.340323 0 0.466697 0C0.592825 0 0.702078 0.0527009 0.794457 0.158103L3.89838 3.71014C3.93533 3.75231 3.96157 3.79798 3.97709 3.84717C3.99236 3.89635 4 3.94906 4 4.00527C4 4.06148 3.99236 4.11419 3.97709 4.16337C3.96157 4.21256 3.93533 4.25823 3.89838 4.3004L0.785219 7.85244C0.698999 7.95081 0.592825 8 0.466697 8C0.340323 8 0.230947 7.9473 0.138568 7.8419Z"
        fill="white" />
</svg>