<svg width="6" height="10" viewBox="0 0 6 10" fill="none" xmlns="http://www.w3.org/2000/svg">
    <path
        d="M5.79215 9.80237C5.93072 9.67062 6 9.51462 6 9.33439C6 9.1545 5.93072 8.99868 5.79215 8.86693L1.7321 5.00659L5.806 1.13307C5.93533 1.0101 6 0.85639 6 0.671937C6 0.487484 5.93072 0.329381 5.79215 0.197628C5.65358 0.0658761 5.48952 0 5.29995 0C5.11076 0 4.94688 0.0658761 4.80831 0.197628L0.152425 4.63768C0.0969975 4.69038 0.0576445 4.74747 0.0343651 4.80896C0.0114552 4.87044 5.84312e-08 4.93632 5.84312e-08 5.00659C5.84312e-08 5.07686 0.0114552 5.14273 0.0343651 5.20422C0.0576445 5.2657 0.0969975 5.32279 0.152425 5.37549L4.82217 9.81555C4.9515 9.93851 5.11076 10 5.29995 10C5.48952 10 5.65358 9.93412 5.79215 9.80237Z"
        fill="white" />
</svg>