<svg width="14" height="15" viewBox="0 0 14 15" fill="none" xmlns="http://www.w3.org/2000/svg">
    <path
        d="M10.5 15C11.4283 15 12.3185 14.6313 12.9749 13.9749C13.6313 13.3185 14 12.4283 14 11.5C14 10.5717 13.6313 9.6815 12.9749 9.02513C12.3185 8.36875 11.4283 8 10.5 8C9.57174 8 8.6815 8.36875 8.02513 9.02513C7.36875 9.6815 7 10.5717 7 11.5C7 12.4283 7.36875 13.3185 8.02513 13.9749C8.6815 14.6313 9.57174 15 10.5 15V15ZM12.179 10.507L10.844 12.733C10.7853 12.8308 10.7051 12.9139 10.6095 12.9761C10.5139 13.0382 10.4053 13.0777 10.2922 13.0916C10.179 13.1055 10.0641 13.0934 9.95628 13.0562C9.84847 13.019 9.75056 12.9577 9.67 12.877L8.896 12.104C8.80211 12.0101 8.74937 11.8828 8.74937 11.75C8.74937 11.6172 8.80211 11.4899 8.896 11.396C8.98989 11.3021 9.11722 11.2494 9.25 11.2494C9.38278 11.2494 9.51011 11.3021 9.604 11.396L10.151 11.944L11.321 9.993C11.3547 9.93666 11.3993 9.88752 11.452 9.84839C11.5047 9.80926 11.5647 9.7809 11.6284 9.76493C11.6921 9.74895 11.7583 9.74568 11.8233 9.75531C11.8882 9.76493 11.9507 9.78725 12.007 9.821C12.0633 9.85475 12.1125 9.89927 12.1516 9.95201C12.1907 10.0047 12.2191 10.0647 12.2351 10.1284C12.251 10.1921 12.2543 10.2583 12.2447 10.3233C12.2351 10.3882 12.2127 10.4507 12.179 10.507Z"
        fill="black" />
    <path
        d="M10.096 5.223C10.4151 5.0806 10.7182 4.90461 11 4.698V6C11 6.289 10.787 6.654 10.247 7.007C10.8421 6.97322 11.438 7.05821 12 7.257V3C12 1.993 11.125 1.245 10.096 0.777C9.022 0.289 7.573 0 6 0C4.427 0 2.978 0.289 1.904 0.777C0.875 1.245 0 1.993 0 3V12C0 13.007 0.875 13.755 1.904 14.223C2.978 14.71 4.427 15 6 15C6.536 15 7.058 14.966 7.555 14.903C7.24297 14.6325 6.96943 14.3206 6.742 13.976C6.5 13.992 6.252 14 6 14C4.536 14 3.234 13.73 2.318 13.313C1.356 12.875 1 12.373 1 12V10.698C1.271 10.9 1.58 11.076 1.904 11.223C2.978 11.71 4.427 12 6 12H6.027C5.99028 11.6677 5.99028 11.3323 6.027 11H6C4.536 11 3.234 10.73 2.318 10.313C1.356 9.875 1 9.373 1 9V7.698C1.271 7.9 1.58 8.076 1.904 8.223C2.978 8.71 4.427 9 6 9C6.262 9 6.52 8.992 6.774 8.976C7.07211 8.53697 7.44513 8.15379 7.876 7.844C7.298 7.944 6.666 8 6 8C4.536 8 3.234 7.73 2.318 7.313C1.356 6.875 1 6.373 1 6V4.698C1.271 4.9 1.58 5.076 1.904 5.223C2.978 5.711 4.427 6 6 6C7.573 6 9.022 5.711 10.096 5.223ZM1 3C1 2.626 1.356 2.125 2.318 1.687C3.234 1.271 4.536 1 6 1C7.464 1 8.766 1.27 9.682 1.687C10.644 2.125 11 2.627 11 3C11 3.374 10.644 3.875 9.682 4.313C8.766 4.729 7.464 5 6 5C4.536 5 3.234 4.73 2.318 4.313C1.356 3.875 1 3.373 1 3Z"
        fill="#3E6997" />
</svg>