<svg width="5" height="12" viewBox="0 0 5 12" fill="none" xmlns="http://www.w3.org/2000/svg">
    <path fill-rule="evenodd" clip-rule="evenodd"
        d="M1 2C1.55228 2 2 1.55228 2 1C2 0.447715 1.55228 0 1 0C0.447715 0 0 0.447715 0 1C0 1.55228 0.447715 2 1 2ZM4 2C4.55228 2 5 1.55228 5 1C5 0.447715 4.55228 0 4 0C3.44772 0 3 0.447715 3 1C3 1.55228 3.44772 2 4 2ZM5 4C5 4.55228 4.55228 5 4 5C3.44772 5 3 4.55228 3 4C3 3.44772 3.44772 3 4 3C4.55228 3 5 3.44772 5 4ZM1 5C1.55228 5 2 4.55228 2 4C2 3.44772 1.55228 3 1 3C0.447715 3 0 3.44772 0 4C0 4.55228 0.447715 5 1 5ZM2 8C2 8.55229 1.55228 9 1 9C0.447715 9 0 8.55229 0 8C0 7.44772 0.447715 7 1 7C1.55228 7 2 7.44772 2 8ZM4 9C4.55228 9 5 8.55229 5 8C5 7.44772 4.55228 7 4 7C3.44772 7 3 7.44772 3 8C3 8.55229 3.44772 9 4 9ZM5 11C5 11.5523 4.55228 12 4 12C3.44772 12 3 11.5523 3 11C3 10.4477 3.44772 10 4 10C4.55228 10 5 10.4477 5 11ZM1 12C1.55228 12 2 11.5523 2 11C2 10.4477 1.55228 10 1 10C0.447715 10 0 10.4477 0 11C0 11.5523 0.447715 12 1 12Z"
        fill="#5D7275" />
</svg>