<svg width="23" height="23" viewBox="0 0 23 23" fill="none" xmlns="http://www.w3.org/2000/svg">
    <g clip-path="url(#clip0_1_16)">
        <path
            d="M-0.394531 15H2L4.03125 19.9531H4.125L6.15625 15H8.55078V23H6.66797V18.0859H6.60156L4.67969 22.9492H3.47656L1.55469 18.0586H1.48828V23H-0.394531V15ZM9.34434 23V15H12.649C13.248 15 13.7649 15.1172 14.1998 15.3516C14.6373 15.5833 14.9745 15.9076 15.2115 16.3242C15.4485 16.7383 15.567 17.2201 15.567 17.7695C15.567 18.3216 15.4459 18.8047 15.2037 19.2188C14.9641 19.6302 14.6217 19.9492 14.1764 20.1758C13.7311 20.4023 13.2024 20.5156 12.5904 20.5156H10.5514V18.9922H12.2311C12.5227 18.9922 12.7662 18.9414 12.9615 18.8398C13.1594 18.7383 13.3092 18.5964 13.4107 18.4141C13.5123 18.2292 13.5631 18.0143 13.5631 17.7695C13.5631 17.5221 13.5123 17.3086 13.4107 17.1289C13.3092 16.9466 13.1594 16.806 12.9615 16.707C12.7636 16.6081 12.5201 16.5586 12.2311 16.5586H11.2779V23H9.34434ZM18.0412 15V23H16.1076V15H18.0412Z"
            fill="white" />
        <line x1="23" y1="1" x2="8.74228e-08" y2="1" stroke="white" stroke-width="2" />
        <line x1="1" y1="2" x2="1" y2="14" stroke="white" stroke-width="2" />
        <line x1="22" y1="2" x2="22" y2="23" stroke="white" stroke-width="2" />
        <line x1="21" y1="22" x2="19" y2="22" stroke="white" stroke-width="2" />
        <g filter="url(#filter0_d_1_16)">
            <rect x="15" y="5" width="3" height="3" fill="#00EE7C" />
        </g>
    </g>
    <defs>
        <filter id="filter0_d_1_16" x="11" y="1" width="11" height="11" filterUnits="userSpaceOnUse"
            color-interpolation-filters="sRGB">
            <feFlood flood-opacity="0" result="BackgroundImageFix" />
            <feColorMatrix in="SourceAlpha" type="matrix"
                values="0 0 0 0 0 0 0 0 0 0 0 0 0 0 0 0 0 0 127 0" result="hardAlpha" />
            <feOffset />
            <feGaussianBlur stdDeviation="2" />
            <feComposite in2="hardAlpha" operator="out" />
            <feColorMatrix type="matrix"
                values="0 0 0 0 0 0 0 0 0 0.933333 0 0 0 0 0.485333 0 0 0 1 0" />
            <feBlend mode="normal" in2="BackgroundImageFix" result="effect1_dropShadow_1_16" />
            <feBlend mode="normal" in="SourceGraphic" in2="effect1_dropShadow_1_16" result="shape" />
        </filter>
        <clipPath id="clip0_1_16">
            <rect width="23" height="23" fill="white" />
        </clipPath>
    </defs>
</svg>