<svg width="4" height="6" viewBox="0 0 4 6" fill="none" xmlns="http://www.w3.org/2000/svg">
<path d="M3.86143 0.118576C3.95381 0.197628 4 0.291225 4 0.399367C4 0.507299 3.95381 0.60079 3.86143 0.679841L1.15473 2.99605L3.87067 5.32016C3.95689 5.39394 4 5.48617 4 5.59684C4 5.70751 3.95381 5.80237 3.86143 5.88142C3.76905 5.96047 3.65968 6 3.5333 6C3.40717 6 3.29792 5.96047 3.20554 5.88142L0.101617 3.21739C0.0646652 3.18577 0.0384299 3.15152 0.0229102 3.11462C0.00763696 3.07773 2.10173e-07 3.03821 2.06487e-07 2.99605C2.02801e-07 2.95389 0.00763694 2.91436 0.0229102 2.87747C0.0384298 2.84058 0.0646652 2.80632 0.101617 2.7747L3.21478 0.110671C3.301 0.0368902 3.40717 -5.91827e-07 3.5333 -6.02854e-07C3.65968 -6.13902e-07 3.76905 0.0395251 3.86143 0.118576Z" fill="#1B79C3"/>
</svg>
