<svg width="15" height="15" viewBox="0 0 15 15" fill="none" xmlns="http://www.w3.org/2000/svg">
<g clip-path="url(#clip0_2_39)">
<path d="M7.5015 0C7.04325 0 6.66833 0.375114 6.66833 0.833586V7.50228C6.66833 7.96075 7.04325 8.33586 7.5015 8.33586C7.95974 8.33586 8.33466 7.96075 8.33466 7.50228V0.833586C8.33466 0.375114 7.95974 0 7.5015 0ZM11.784 2.38406C11.6307 2.53737 11.5439 2.74487 11.5424 2.96169C11.5408 3.17851 11.6246 3.38724 11.7756 3.54274C12.7171 4.54304 13.3003 5.87678 13.3337 7.35223C13.4087 10.5449 10.7675 13.2957 7.57648 13.329C6.80443 13.3411 6.0377 13.1992 5.32102 12.9117C4.60434 12.6242 3.95205 12.1968 3.4022 11.6544C2.85235 11.1121 2.41594 10.4656 2.11842 9.75271C1.8209 9.03983 1.66824 8.27481 1.66933 7.50228C1.66933 5.96848 2.26088 4.57639 3.22735 3.53441C3.53562 3.20931 3.53562 2.70082 3.21902 2.38406C3.14073 2.305 3.0473 2.24256 2.94434 2.20046C2.84138 2.15835 2.73098 2.13745 2.61976 2.13901C2.50854 2.14057 2.39877 2.16454 2.29703 2.20951C2.19528 2.25448 2.10364 2.31952 2.02759 2.40073C0.777254 3.72578 0.0567891 5.46407 0.00299325 7.28554C-0.11365 11.3534 3.19402 14.8712 7.25988 14.9962C11.509 15.1296 15 11.7202 15 7.49394C15 5.51834 14.2335 3.73447 12.9837 2.40073C12.6671 2.05896 12.1172 2.05062 11.784 2.38406V2.38406Z" fill="white"/>
</g>
<defs>
<clipPath id="clip0_2_39">
<rect width="15" height="15" fill="white"/>
</clipPath>
</defs>
</svg>
