<svg width="15" height="15" viewBox="0 0 15 15" fill="none" xmlns="http://www.w3.org/2000/svg">
<g clip-path="url(#clip0_2_27)">
<path fill-rule="evenodd" clip-rule="evenodd" d="M5.944 0.5L5.858 0.937L5.529 2.535C5.01239 2.73578 4.52897 3.01323 4.095 3.358L2.487 2.82L2.055 2.687L1.831 3.072L0.724 4.923L0.5 5.31L0.828 5.597L2.072 6.655C2.027 6.932 1.969 7.205 1.969 7.496C1.969 7.787 2.027 8.061 2.072 8.338L0.828 9.395L0.5 9.682L0.724 10.068L1.831 11.918L2.055 12.305L2.487 12.17L4.095 11.633C4.526 11.971 5.003 12.255 5.529 12.456L5.858 14.054L5.944 14.491H9.055L9.142 14.054L9.47 12.456C9.98658 12.2552 10.47 11.9777 10.904 11.633L12.512 12.17L12.944 12.305L13.169 11.919L14.275 10.068L14.5 9.682L14.171 9.395L12.927 8.337C12.973 8.06 13.03 7.787 13.03 7.495C13.03 7.205 12.973 6.931 12.927 6.654L14.171 5.596L14.5 5.309L14.275 4.923L13.169 3.073L12.944 2.687L12.512 2.821L10.904 3.358C10.47 3.01323 9.98661 2.73578 9.47 2.535L9.142 0.937L9.055 0.5H5.944ZM11 7.5C11 8.42826 10.6313 9.3185 9.97487 9.97487C9.3185 10.6313 8.42826 11 7.5 11C6.57174 11 5.6815 10.6313 5.02513 9.97487C4.36875 9.3185 4 8.42826 4 7.5C4 6.57174 4.36875 5.6815 5.02513 5.02513C5.6815 4.36875 6.57174 4 7.5 4C8.42826 4 9.3185 4.36875 9.97487 5.02513C10.6313 5.6815 11 6.57174 11 7.5Z" fill="white"/>
<path d="M5.944 0.5V0C5.70508 0 5.49954 0.16903 5.45341 0.403454L5.944 0.5ZM5.858 0.937L6.34775 1.03783L6.34859 1.03355L5.858 0.937ZM5.529 2.535L5.71013 3.00104C5.86831 2.93956 5.98451 2.80205 6.01873 2.63583L5.529 2.535ZM4.095 3.358L3.93636 3.83216C4.09681 3.88585 4.27354 3.85474 4.40602 3.74949L4.095 3.358ZM2.487 2.82L2.64569 2.3457L2.63412 2.34213L2.487 2.82ZM2.055 2.687L2.20212 2.20913C1.97986 2.14071 1.73977 2.23455 1.62283 2.43555L2.055 2.687ZM1.831 3.072L2.26015 3.32865L2.26317 3.32345L1.831 3.072ZM0.724 4.923L0.294842 4.66634L0.291261 4.67253L0.724 4.923ZM0.5 5.31L0.0672613 5.05953C-0.0524418 5.26633 -0.00908303 5.52894 0.170748 5.68629L0.5 5.31ZM0.828 5.597L0.498715 5.97333L0.504069 5.97788L0.828 5.597ZM2.072 6.655L2.56553 6.73518C2.5936 6.5624 2.52927 6.38752 2.39593 6.27412L2.072 6.655ZM2.072 8.338L2.39575 8.71903C2.52921 8.60564 2.59361 8.43068 2.56553 8.25782L2.072 8.338ZM0.828 9.395L0.504213 9.01393L0.498748 9.01871L0.828 9.395ZM0.5 9.682L0.170748 9.30571C-0.00924194 9.4632 -0.0524986 9.7261 0.0675429 9.93296L0.5 9.682ZM0.724 10.068L0.291504 10.319L0.294947 10.3247L0.724 10.068ZM1.831 11.918L2.26378 11.6675L2.26005 11.6613L1.831 11.918ZM2.055 12.305L1.62226 12.5555C1.73936 12.7578 1.98102 12.852 2.20414 12.7822L2.055 12.305ZM2.487 12.17L2.63617 12.6473L2.64538 12.6443L2.487 12.17ZM4.095 11.633L4.40355 11.2396C4.27136 11.1359 4.09596 11.1055 3.93662 11.1587L4.095 11.633ZM5.529 12.456L6.01873 12.3552C5.9843 12.188 5.86695 12.0499 5.70748 11.9889L5.529 12.456ZM5.858 14.054L6.34861 13.9574L6.34773 13.9532L5.858 14.054ZM5.944 14.491L5.45341 14.5875C5.49954 14.822 5.70508 14.991 5.944 14.991V14.491ZM9.055 14.491V14.991C9.29351 14.991 9.49881 14.8225 9.54538 14.5886L9.055 14.491ZM9.142 14.054L8.6522 13.9535L8.65162 13.9564L9.142 14.054ZM9.47 12.456L9.28882 11.99C9.13057 12.0515 9.01435 12.1891 8.98021 12.3555L9.47 12.456ZM10.904 11.633L11.0624 11.1587C10.902 11.1052 10.7254 11.1363 10.593 11.2415L10.904 11.633ZM12.512 12.17L12.3536 12.6443L12.3629 12.6472L12.512 12.17ZM12.944 12.305L12.7949 12.7822C13.0174 12.8518 13.2585 12.7583 13.376 12.5568L12.944 12.305ZM13.169 11.919L12.7398 11.6625L12.737 11.6672L13.169 11.919ZM14.275 10.068L14.7042 10.3245L14.707 10.3198L14.275 10.068ZM14.5 9.682L14.932 9.9338C15.0527 9.72661 15.0094 9.46286 14.8287 9.30521L14.5 9.682ZM14.171 9.395L14.4997 9.01819L14.4949 9.01412L14.171 9.395ZM12.927 8.337L12.4338 8.25509C12.405 8.42838 12.4693 8.60407 12.6031 8.71788L12.927 8.337ZM12.927 6.654L12.6031 6.27312C12.4693 6.38693 12.405 6.56262 12.4338 6.73591L12.927 6.654ZM14.171 5.596L14.495 5.97691L14.4997 5.97278L14.171 5.596ZM14.5 5.309L14.8287 5.68578C15.0094 5.52814 15.0527 5.26439 14.932 5.0572L14.5 5.309ZM14.275 4.923L14.707 4.67119L14.7042 4.66643L14.275 4.923ZM13.169 3.073L12.737 3.32481L12.7398 3.32957L13.169 3.073ZM12.944 2.687L13.376 2.4352C13.2587 2.23408 13.0182 2.14048 12.7959 2.20945L12.944 2.687ZM12.512 2.821L12.3638 2.34334L12.3536 2.34675L12.512 2.821ZM10.904 3.358L10.593 3.74949C10.7254 3.85468 10.902 3.88582 11.0624 3.83225L10.904 3.358ZM9.47 2.535L8.98021 2.63553C9.01435 2.80188 9.13059 2.93952 9.28887 3.00104L9.47 2.535ZM9.142 0.937L8.65162 1.03463L8.65221 1.03753L9.142 0.937ZM9.055 0.5L9.54538 0.402374C9.49881 0.168458 9.29351 0 9.055 0V0.5ZM7.5 11V10.5V11ZM4 7.5H3.5H4ZM7.5 4V3.5V4ZM5.45341 0.403454L5.36741 0.840454L6.34859 1.03355L6.43459 0.596546L5.45341 0.403454ZM5.36827 0.836174L5.03927 2.43417L6.01873 2.63583L6.34773 1.03783L5.36827 0.836174ZM5.34787 2.06896C4.78447 2.28793 4.25726 2.59051 3.78398 2.96651L4.40602 3.74949C4.80068 3.43595 5.24032 3.18364 5.71013 3.00104L5.34787 2.06896ZM4.25364 2.88384L2.64564 2.34584L2.32836 3.29416L3.93636 3.83216L4.25364 2.88384ZM2.63412 2.34213L2.20212 2.20913L1.90788 3.16487L2.33988 3.29787L2.63412 2.34213ZM1.62283 2.43555L1.39883 2.82055L2.26317 3.32345L2.48717 2.93845L1.62283 2.43555ZM1.40189 2.81537L0.294886 4.66637L1.15311 5.17963L2.26011 3.32863L1.40189 2.81537ZM0.291261 4.67253L0.0672613 5.05953L0.932739 5.56047L1.15674 5.17347L0.291261 4.67253ZM0.170748 5.68629L0.498748 5.97329L1.15725 5.22071L0.829252 4.93371L0.170748 5.68629ZM0.504069 5.97788L1.74807 7.03588L2.39593 6.27412L1.15193 5.21612L0.504069 5.97788ZM1.57847 6.57482C1.53855 6.82053 1.469 7.15248 1.469 7.496H2.469C2.469 7.25752 2.51545 7.04347 2.56553 6.73518L1.57847 6.57482ZM1.469 7.496C1.469 7.83949 1.53851 8.17217 1.57847 8.41818L2.56553 8.25782C2.51549 7.94983 2.469 7.73451 2.469 7.496H1.469ZM1.74825 7.95697L0.504247 9.01397L1.15175 9.77603L2.39575 8.71903L1.74825 7.95697ZM0.498748 9.01871L0.170748 9.30571L0.829252 10.0583L1.15725 9.77129L0.498748 9.01871ZM0.0675429 9.93296L0.291543 10.319L1.15646 9.81704L0.932457 9.43104L0.0675429 9.93296ZM0.294947 10.3247L1.40195 12.1747L2.26005 11.6613L1.15305 9.81126L0.294947 10.3247ZM1.39826 12.1685L1.62226 12.5555L2.48774 12.0545L2.26374 11.6675L1.39826 12.1685ZM2.20414 12.7822L2.63614 12.6472L2.33786 11.6928L1.90586 11.8278L2.20414 12.7822ZM2.64538 12.6443L4.25338 12.1073L3.93662 11.1587L2.32862 11.6957L2.64538 12.6443ZM3.78645 12.0264C4.25139 12.3911 4.77162 12.7018 5.35052 12.9231L5.70748 11.9889C5.23438 11.8082 4.80061 11.5509 4.40355 11.2396L3.78645 12.0264ZM5.03927 12.5568L5.36827 14.1548L6.34773 13.9532L6.01873 12.3552L5.03927 12.5568ZM5.36741 14.1505L5.45341 14.5875L6.43459 14.3945L6.34859 13.9575L5.36741 14.1505ZM5.944 14.991H9.055V13.991H5.944V14.991ZM9.54538 14.5886L9.63238 14.1516L8.65162 13.9564L8.56462 14.3934L9.54538 14.5886ZM9.63179 14.1545L9.95979 12.5565L8.98021 12.3555L8.65221 13.9535L9.63179 14.1545ZM9.65118 12.922C10.2145 12.703 10.7417 12.4004 11.215 12.0245L10.593 11.2415C10.1983 11.555 9.75864 11.8073 9.28882 11.99L9.65118 12.922ZM10.7456 12.1073L12.3536 12.6443L12.6704 11.6957L11.0624 11.1587L10.7456 12.1073ZM12.3629 12.6472L12.7949 12.7822L13.0931 11.8278L12.6611 11.6928L12.3629 12.6472ZM13.376 12.5568L13.601 12.1708L12.737 11.6672L12.512 12.0532L13.376 12.5568ZM13.5982 12.1755L14.7042 10.3245L13.8458 9.81154L12.7398 11.6625L13.5982 12.1755ZM14.707 10.3198L14.932 9.9338L14.068 9.4302L13.843 9.8162L14.707 10.3198ZM14.8287 9.30521L14.4997 9.01822L13.8423 9.77179L14.1713 10.0588L14.8287 9.30521ZM14.4949 9.01412L13.2509 7.95612L12.6031 8.71788L13.8471 9.77588L14.4949 9.01412ZM13.4202 8.41891C13.4617 8.16908 13.53 7.84 13.53 7.495H12.53C12.53 7.734 12.4843 7.95092 12.4338 8.25509L13.4202 8.41891ZM13.53 7.495C13.53 7.152 13.4617 6.82192 13.4202 6.57209L12.4338 6.73591C12.4843 7.04008 12.53 7.258 12.53 7.495H13.53ZM13.2509 7.03488L14.4949 5.97688L13.8471 5.21512L12.6031 6.27312L13.2509 7.03488ZM14.4997 5.97278L14.8287 5.68578L14.1713 4.93222L13.8423 5.21922L14.4997 5.97278ZM14.932 5.0572L14.707 4.6712L13.843 5.1748L14.068 5.5608L14.932 5.0572ZM14.7042 4.66643L13.5982 2.81643L12.7398 3.32957L13.8458 5.17956L14.7042 4.66643ZM13.601 2.8212L13.376 2.4352L12.512 2.9388L12.737 3.3248L13.601 2.8212ZM12.7959 2.20945L12.3639 2.34345L12.6601 3.29855L13.0921 3.16455L12.7959 2.20945ZM12.3536 2.34675L10.7456 2.88375L11.0624 3.83225L12.6704 3.29525L12.3536 2.34675ZM11.215 2.96651C10.7417 2.59051 10.2145 2.28793 9.65113 2.06896L9.28887 3.00104C9.75868 3.18364 10.1983 3.43595 10.593 3.74949L11.215 2.96651ZM9.95979 2.43447L9.63179 0.836468L8.65221 1.03753L8.98021 2.63553L9.95979 2.43447ZM9.63238 0.839374L9.54538 0.402374L8.56462 0.597626L8.65162 1.03463L9.63238 0.839374ZM9.055 0H5.944V1H9.055V0ZM10.5 7.5C10.5 8.29565 10.1839 9.05871 9.62132 9.62132L10.3284 10.3284C11.0786 9.57828 11.5 8.56087 11.5 7.5H10.5ZM9.62132 9.62132C9.05871 10.1839 8.29565 10.5 7.5 10.5V11.5C8.56087 11.5 9.57828 11.0786 10.3284 10.3284L9.62132 9.62132ZM7.5 10.5C6.70435 10.5 5.94129 10.1839 5.37868 9.62132L4.67157 10.3284C5.42172 11.0786 6.43913 11.5 7.5 11.5V10.5ZM5.37868 9.62132C4.81607 9.05871 4.5 8.29565 4.5 7.5H3.5C3.5 8.56087 3.92143 9.57828 4.67157 10.3284L5.37868 9.62132ZM4.5 7.5C4.5 6.70435 4.81607 5.94129 5.37868 5.37868L4.67157 4.67157C3.92143 5.42172 3.5 6.43913 3.5 7.5H4.5ZM5.37868 5.37868C5.94129 4.81607 6.70435 4.5 7.5 4.5V3.5C6.43913 3.5 5.42172 3.92143 4.67157 4.67157L5.37868 5.37868ZM7.5 4.5C8.29565 4.5 9.05871 4.81607 9.62132 5.37868L10.3284 4.67157C9.57828 3.92143 8.56087 3.5 7.5 3.5V4.5ZM9.62132 5.37868C10.1839 5.94129 10.5 6.70435 10.5 7.5H11.5C11.5 6.43913 11.0786 5.42172 10.3284 4.67157L9.62132 5.37868Z" fill="white"/>
</g>
<defs>
<clipPath id="clip0_2_27">
<rect width="15" height="15" fill="white"/>
</clipPath>
</defs>
</svg>
