<svg width="15" height="15" viewBox="0 0 15 15" fill="none" xmlns="http://www.w3.org/2000/svg">
<g clip-path="url(#clip0_2_64)">
<mask id="mask0_2_64" style="mask-type:luminance" maskUnits="userSpaceOnUse" x="0" y="0" width="15" height="15">
<path d="M11.25 2.5H4.0625C3.125 2.5 1.25 3.125 1.25 5C1.25 6.875 3.125 7.5 4.0625 7.5H10.9375C11.875 7.5 13.75 8.125 13.75 10C13.75 11.875 11.875 12.5 10.9375 12.5H3.75" stroke="white" stroke-width="2" stroke-linecap="round" stroke-linejoin="round"/>
<path d="M12.5 3.75C12.8315 3.75 13.1495 3.6183 13.3839 3.38388C13.6183 3.14946 13.75 2.83152 13.75 2.5C13.75 2.16848 13.6183 1.85054 13.3839 1.61612C13.1495 1.3817 12.8315 1.25 12.5 1.25C12.1685 1.25 11.8505 1.3817 11.6161 1.61612C11.3817 1.85054 11.25 2.16848 11.25 2.5C11.25 2.83152 11.3817 3.14946 11.6161 3.38388C11.8505 3.6183 12.1685 3.75 12.5 3.75ZM2.5 13.75C2.83152 13.75 3.14946 13.6183 3.38388 13.3839C3.6183 13.1495 3.75 12.8315 3.75 12.5C3.75 12.1685 3.6183 11.8505 3.38388 11.6161C3.14946 11.3817 2.83152 11.25 2.5 11.25C2.16848 11.25 1.85054 11.3817 1.61612 11.6161C1.3817 11.8505 1.25 12.1685 1.25 12.5C1.25 12.8315 1.3817 13.1495 1.61612 13.3839C1.85054 13.6183 2.16848 13.75 2.5 13.75Z" fill="white" stroke="white" stroke-width="2" stroke-linejoin="round"/>
</mask>
<g mask="url(#mask0_2_64)">
<path d="M0 0H15V15H0V0Z" fill="white"/>
</g>
</g>
<defs>
<clipPath id="clip0_2_64">
<rect width="15" height="15" fill="white"/>
</clipPath>
</defs>
</svg>
