<svg width="15" height="15" viewBox="0 0 15 15" fill="none" xmlns="http://www.w3.org/2000/svg">
<g clip-path="url(#clip0_2_62)">
<path d="M7.5 0C3.3645 0 0 3.3645 0 7.5C0 11.6355 3.3645 15 7.5 15C11.6355 15 15 11.6355 15 7.5C15 3.3645 11.6355 0 7.5 0ZM8.25 11.1863V12H6.75V11.19C4.99575 10.9148 4.5 9.6885 4.5 9H6C6.00825 9.10725 6.11925 9.75 7.5 9.75C8.535 9.75 9 9.31125 9 9C9 8.757 9 8.25 7.5 8.25C4.89 8.25 4.5 6.84 4.5 6C4.5 5.034 5.27175 4.062 6.75 3.81375V3.009H8.25V3.84075C9.5505 4.14825 10.05 5.2305 10.05 6H9.3L8.55 6.0135C8.5395 5.7285 8.38875 5.25 7.5 5.25C6.52575 5.25 6 5.637 6 6C6 6.2805 6 6.75 7.5 6.75C10.11 6.75 10.5 8.16 10.5 9C10.5 9.966 9.72825 10.938 8.25 11.1863Z" fill="white"/>
</g>
<defs>
<clipPath id="clip0_2_62">
<rect width="15" height="15" fill="white"/>
</clipPath>
</defs>
</svg>
