<svg width="6" height="10" viewBox="0 0 6 10" fill="none" xmlns="http://www.w3.org/2000/svg">
    <path
        d="M0.207851 0.197629C0.0692808 0.329379 8.31794e-07 0.48538 8.16038e-07 0.66561C8.00312e-07 0.8455 0.0692808 1.00132 0.207851 1.13307L4.2679 4.99341L0.194 8.86693C0.0646699 8.9899 7.4868e-08 9.14361 5.87426e-08 9.32806C4.26172e-08 9.51252 0.06928 9.67062 0.20785 9.80237C0.34642 9.93412 0.51048 10 0.70005 10C0.88924 10 1.05312 9.93412 1.19169 9.80237L5.84758 5.36232C5.903 5.30962 5.94236 5.25253 5.96564 5.19104C5.98855 5.12956 6 5.06368 6 4.99341C6 4.92314 5.98855 4.85727 5.96564 4.79578C5.94236 4.7343 5.903 4.67721 5.84758 4.62451L1.17783 0.18445C1.0485 0.0614897 0.889241 -4.46797e-07 0.700051 -4.63336e-07C0.510481 -4.79909e-07 0.346421 0.0658794 0.207851 0.197629Z"
        fill="white" />
</svg>