<svg width="15" height="15" viewBox="0 0 15 15" fill="none" xmlns="http://www.w3.org/2000/svg">
<path d="M10.9091 14H4.09091V12.5556H5.45455V11.8333H1.36364C1.00198 11.8333 0.655131 11.6812 0.3994 11.4103C0.143668 11.1394 0 10.772 0 10.3889V2.44444C0 2.06135 0.143668 1.69395 0.3994 1.42307C0.655131 1.15218 1.00198 1 1.36364 1H13.6364C13.998 1 14.3449 1.15218 14.6006 1.42307C14.8563 1.69395 15 2.06135 15 2.44444V10.3889C15 10.772 14.8563 11.1394 14.6006 11.4103C14.3449 11.6812 13.998 11.8333 13.6364 11.8333H9.54545V12.5556H10.9091V14ZM1.36364 2.44444V10.3889H13.6364V2.44444H1.36364Z" fill="white"/>
</svg>
