<svg width="4" height="6" viewBox="0 0 4 6" fill="none" xmlns="http://www.w3.org/2000/svg">
<path d="M0.138568 5.88142C0.0461894 5.80237 0 5.70877 0 5.60063C0 5.4927 0.0461894 5.39921 0.138568 5.32016L2.84527 3.00395L0.12933 0.679842C0.04311 0.606061 0 0.513834 0 0.403162C0 0.29249 0.0461894 0.197628 0.138568 0.118577C0.230947 0.0395257 0.340323 0 0.466697 0C0.592825 0 0.702078 0.0395257 0.794457 0.118577L3.89838 2.78261C3.93533 2.81423 3.96157 2.84848 3.97709 2.88538C3.99236 2.92227 4 2.96179 4 3.00395C4 3.04611 3.99236 3.08564 3.97709 3.12253C3.96157 3.15942 3.93533 3.19368 3.89838 3.2253L0.785219 5.88933C0.698999 5.96311 0.592825 6 0.466697 6C0.340323 6 0.230947 5.96047 0.138568 5.88142Z" fill="#1B79C3"/>
</svg>
