<svg width="15" height="15" viewBox="0 0 15 15" fill="none" xmlns="http://www.w3.org/2000/svg">
<g clip-path="url(#clip0_2_41)">
<path d="M9.8025 6.9375L9.1275 7.6275C8.5875 8.1675 8.25 8.625 8.25 9.75H6.75V9.375C6.75 8.5425 7.0875 7.7925 7.6275 7.2525L8.5575 6.3075C8.835 6.0375 9 5.6625 9 5.25C9 4.85218 8.84196 4.47064 8.56066 4.18934C8.27936 3.90804 7.89782 3.75 7.5 3.75C7.10218 3.75 6.72064 3.90804 6.43934 4.18934C6.15804 4.47064 6 4.85218 6 5.25H4.5C4.5 4.45435 4.81607 3.69129 5.37868 3.12868C5.94129 2.56607 6.70435 2.25 7.5 2.25C8.29565 2.25 9.05871 2.56607 9.62132 3.12868C10.1839 3.69129 10.5 4.45435 10.5 5.25C10.4989 5.88243 10.2483 6.48887 9.8025 6.9375M8.25 12.75H6.75V11.25H8.25M7.5 0C6.51509 0 5.53982 0.193993 4.62987 0.570904C3.71993 0.947814 2.89314 1.50026 2.1967 2.1967C0.790176 3.60322 0 5.51088 0 7.5C0 9.48912 0.790176 11.3968 2.1967 12.8033C2.89314 13.4997 3.71993 14.0522 4.62987 14.4291C5.53982 14.806 6.51509 15 7.5 15C9.48912 15 11.3968 14.2098 12.8033 12.8033C14.2098 11.3968 15 9.48912 15 7.5C15 3.3525 11.625 0 7.5 0Z" fill="white"/>
</g>
<defs>
<clipPath id="clip0_2_41">
<rect width="15" height="15" fill="white"/>
</clipPath>
</defs>
</svg>
