<svg width="11" height="11" viewBox="0 0 11 11" fill="none" xmlns="http://www.w3.org/2000/svg">
<g clip-path="url(#clip0_36_20)">
<path d="M10.6123 6.6C10.6634 6.59993 10.714 6.60998 10.7612 6.62958C10.8085 6.64917 10.8513 6.67793 10.8874 6.71418C10.9234 6.75044 10.9519 6.79347 10.9713 6.8408C10.9906 6.88813 11.0004 6.93883 11 6.98995V8.75215C11.0004 8.80304 10.9907 8.85351 10.9715 8.90066C10.9524 8.94781 10.9241 8.99073 10.8884 9.02694C10.8526 9.06316 10.81 9.09197 10.7631 9.11173C10.7162 9.13149 10.6659 9.14181 10.615 9.1421C10.5641 9.14181 10.5138 9.13149 10.4669 9.11173C10.42 9.09197 10.3774 9.06316 10.3417 9.02694C10.3059 8.99073 10.2776 8.94781 10.2585 8.90066C10.2393 8.85351 10.2296 8.80304 10.23 8.75215V8.1334C9.22846 9.8142 7.36946 11 5.36636 11C2.94086 11 0.90806 9.50345 0.0264098 7.19675C-0.0106083 7.10064 -0.00827616 6.99382 0.0329012 6.89942C0.0740786 6.80502 0.150786 6.73065 0.24641 6.6924C0.44441 6.61485 0.66771 6.7144 0.74471 6.91515C1.51471 8.92925 3.26811 10.2207 5.36636 10.2207C7.22041 10.2207 8.95236 9.02055 9.75921 7.38595L8.95016 7.39145C8.89927 7.39152 8.84886 7.38156 8.80182 7.36213C8.75478 7.34271 8.71203 7.3142 8.67601 7.27824C8.64 7.24227 8.61143 7.19957 8.59194 7.15255C8.57244 7.10554 8.56241 7.05514 8.56241 7.00425C8.56109 6.9015 8.6006 6.80243 8.67228 6.7288C8.74395 6.65517 8.84192 6.613 8.94466 6.61155L10.6123 6.6ZM5.63476 0C8.05916 0 10.0925 1.49655 10.9742 3.80325C11.0112 3.89936 11.0088 4.00618 10.9677 4.10058C10.9265 4.19498 10.8498 4.26935 10.7542 4.3076C10.7068 4.32605 10.6563 4.33492 10.6056 4.33369C10.5548 4.33245 10.5048 4.32115 10.4584 4.30042C10.4121 4.2797 10.3703 4.24997 10.3355 4.21296C10.3007 4.17596 10.2737 4.13241 10.2559 4.08485C9.48586 2.07075 7.73246 0.77935 5.63421 0.77935C3.78016 0.77935 2.04821 1.97945 1.24136 3.61405L2.05041 3.60855C2.1013 3.60848 2.15171 3.61844 2.19875 3.63787C2.24579 3.65729 2.28854 3.6858 2.32456 3.72176C2.36057 3.75773 2.38914 3.80043 2.40863 3.84745C2.42813 3.89446 2.43816 3.94486 2.43816 3.99575C2.43948 4.0985 2.39997 4.19757 2.32829 4.2712C2.25662 4.34483 2.15865 4.387 2.05591 4.38845L0.38776 4.4C0.336633 4.40007 0.285999 4.39002 0.238778 4.37042C0.191557 4.35083 0.148684 4.32207 0.112635 4.28582C0.0765854 4.24956 0.0480728 4.20653 0.0287424 4.1592C0.00941201 4.11187 -0.000353397 4.06117 9.76945e-06 4.01005V2.24785C9.76945e-06 2.03225 0.17216 1.8579 0.38501 1.8579C0.59731 1.8579 0.77001 2.03225 0.77001 2.24785V2.8666C1.77156 1.1858 3.63056 0 5.63366 0H5.63476Z" fill="#1B79C3"/>
</g>
<defs>
<clipPath id="clip0_36_20">
<rect width="11" height="11" fill="white"/>
</clipPath>
</defs>
</svg>
