<svg width="11" height="11" viewBox="0 0 11 11" fill="none" xmlns="http://www.w3.org/2000/svg">
<path d="M10.45 0H0.55C0.404131 0 0.264236 0.0579462 0.161091 0.161091C0.0579462 0.264236 0 0.404131 0 0.55V10.45C0 10.5959 0.0579462 10.7358 0.161091 10.8389C0.264236 10.9421 0.404131 11 0.55 11H10.45C10.5959 11 10.7358 10.9421 10.8389 10.8389C10.9421 10.7358 11 10.5959 11 10.45V0.55C11 0.404131 10.9421 0.264236 10.8389 0.161091C10.7358 0.0579462 10.5959 0 10.45 0V0ZM4.95 9.9H1.1V1.1H4.95V9.9ZM9.9 9.9H6.05V1.1H9.9V9.9Z" fill="#1B79C3"/>
</svg>
