<svg width="15" height="15" viewBox="0 0 15 15" fill="none" xmlns="http://www.w3.org/2000/svg">
<g clip-path="url(#clip0_2_34)">
<path d="M7.5 -7.01286e-06C7.0336 -0.0111601 6.56968 0.071071 6.13552 0.241849C5.70137 0.412627 5.30575 0.668504 4.97194 0.994427C4.63813 1.32035 4.37287 1.70974 4.19176 2.13969C4.01065 2.56963 3.91735 3.03146 3.91735 3.49799C3.91735 3.96453 4.01065 4.42635 4.19176 4.8563C4.37287 5.28625 4.63813 5.67564 4.97194 6.00156C5.30575 6.32748 5.70137 6.58336 6.13552 6.75414C6.56968 6.92491 7.0336 7.00715 7.5 6.99599C7.9664 7.00715 8.43032 6.92491 8.86448 6.75414C9.29863 6.58336 9.69425 6.32748 10.0281 6.00156C10.3619 5.67564 10.6271 5.28625 10.8082 4.8563C10.9894 4.42635 11.0826 3.96453 11.0826 3.49799C11.0826 3.03146 10.9894 2.56963 10.8082 2.13969C10.6271 1.70974 10.3619 1.32035 10.0281 0.994427C9.69425 0.668504 9.29863 0.412627 8.86448 0.241849C8.43032 0.071071 7.9664 -0.0111601 7.5 -7.01286e-06V-7.01286e-06ZM5.5 8.99399C4.57174 8.99399 3.6815 9.36274 3.02513 10.0191C2.36875 10.6755 2 11.5657 2 12.494V14.991H13V12.494C13 11.5657 12.6313 10.6755 11.9749 10.0191C11.3185 9.36274 10.4283 8.99399 9.5 8.99399H5.5Z" fill="white"/>
</g>
<defs>
<clipPath id="clip0_2_34">
<rect width="15" height="15" fill="white"/>
</clipPath>
</defs>
</svg>
